<?xml version="1.0" encoding="utf-8"?>
<!-- Generator: Adobe Illustrator 23.0.3, SVG Export Plug-In . SVG Version: 6.00 Build 0)  -->
<svg version="1.1" id="Layer_1" xmlns="http://www.w3.org/2000/svg" xmlns:xlink="http://www.w3.org/1999/xlink" x="0px" y="0px"
	 viewBox="0 0 680.42 680.26" style="enable-background:new 0 0 680.42 680.26;" xml:space="preserve">
<style type="text/css">
	.st0{fill:#FFFFFF;}
</style>
<g>
	<polygon class="st0" points="592.29,251.91 592.29,318.43 613.9,340.05 580.62,373.32 580.62,373.26 533.59,420.3 430.57,523.32 
		430.63,523.32 497.15,523.32 533.59,486.88 533.59,486.95 580.62,439.91 580.62,439.84 680.42,340.05 	"/>
	<polygon class="st0" points="76.1,330.45 76.1,330.45 99.49,307.07 146.52,260.03 246.97,159.58 180.46,159.58 174.33,165.71 
		174.34,165.71 146.52,193.53 99.49,240.57 0,340.05 87.82,427.88 87.82,361.35 66.51,340.05 	"/>
	<polygon class="st0" points="340.21,66.35 374.74,100.88 374.63,100.88 421.67,147.92 521.92,248.17 521.92,248.07 521.92,181.54 
		513.84,173.47 513.68,173.64 487.96,147.92 440.92,100.88 340.04,0 250.82,89.22 317.34,89.22 	"/>
	<polygon class="st0" points="340.21,613.74 308.49,582.02 308.5,582.02 261.46,534.98 158.19,431.71 158.19,431.72 158.19,498.24 
		194.93,534.98 241.97,582.02 340.21,680.26 426.79,593.68 360.27,593.68 	"/>
	<polygon class="st0" points="146.52,147.92 155.91,147.92 192.12,147.92 258.64,147.92 405.17,147.92 358.13,100.88 305.68,100.88 
		239.16,100.88 101.48,100.88 99.49,100.88 99.49,224.07 146.52,177.03 	"/>
	<polygon class="st0" points="146.52,534.98 146.52,533.38 146.52,486.58 146.52,420.06 146.52,276.53 99.49,323.56 99.49,373.02 
		99.49,439.54 99.49,578.76 99.49,582.02 225.47,582.02 178.44,534.98 	"/>
	<polygon class="st0" points="521.92,147.92 533.59,147.92 533.59,193.21 533.59,259.73 533.59,403.81 580.62,356.77 580.62,306.77 
		580.62,240.25 580.62,100.88 457.41,100.88 504.45,147.92 	"/>
	<polygon class="st0" points="533.59,534.98 527.98,534.98 485.49,534.98 418.97,534.98 277.96,534.98 324.99,582.02 356.93,582.02 
		371.93,582.02 438.45,582.02 580.62,582.02 580.62,456.41 533.59,503.44 	"/>
</g>
</svg>
