<?xml version="1.0" encoding="UTF-8"?>
<svg width="94px" height="19px" viewBox="0 0 94 19" version="1.1" xmlns="http://www.w3.org/2000/svg" xmlns:xlink="http://www.w3.org/1999/xlink">
    <!-- Generator: Sketch 54.1 (76490) - https://sketchapp.com -->
    <title>Group 2 Copy</title>
    <desc>Created with Sketch.</desc>
    <g id="Design" stroke="none" stroke-width="1" fill="none" fill-rule="evenodd">
        <g id="Symbols-Desktop-Copy-3" transform="translate(-72.000000, -1667.000000)" fill="#000000">
            <g id="Group-2-Copy" transform="translate(72.000000, 1667.000000)">
                <path d="M6.82258065,12.92 L6.82258065,9.48693296 C5.05946845,9.48693296 3.62575491,8.12941299 3.62575491,6.46 C3.62575491,4.79114797 5.05946845,3.43306704 6.82258065,3.43306704 L6.82258065,0 C5.00022409,0 3.28687716,0.672028482 1.99771986,1.89211358 C0.710339892,3.11219868 0,4.73449114 0,6.46 C0,8.18550886 0.710339892,9.80780132 1.99771986,11.0278864 C3.28687716,12.2479715 5.00022409,12.92 6.82258065,12.92" id="Fill-1"></path>
                <path d="M6.82258065,15.566933 L6.82258065,19 C8.64477897,19 10.3579771,18.3279715 11.6470225,17.1078864 C12.9348831,15.8872404 13.6451613,14.2655089 13.6451613,12.54 C13.6451613,10.8139302 12.9348831,9.19219868 11.6470225,7.97211358 C10.3579771,6.75146752 8.64477897,6.08 6.82258065,6.08 L6.82258065,9.51250608 C8.58553975,9.51250608 10.0191288,10.870587 10.0191288,12.54 C10.0191288,14.208852 8.58553975,15.566933 6.82258065,15.566933" id="Fill-4"></path>
                <polygon id="Fill-6" points="19.9276273 18.24 19.9276273 8.50197327 25.7741935 2.55623922 23.3221152 0.062811108 19.9276273 3.5145408 19.9276273 0 16.4594694 0 16.4594694 3.5145408 13.0649815 0.062811108 10.6129032 2.55623922 16.4594694 8.50197327 16.4594694 18.24"></polygon>
                <path d="M25.0734498,14.2776734 L25.0734498,14.6353317 L21.983871,14.6353317 C21.983871,16.3731842 23.3724078,17.7871954 25.0802067,17.7871954 C26.9766349,17.7871954 28.5194536,16.2167087 28.5194536,14.2862709 L28.5194536,8.42961632 C28.5194536,6.33295918 29.8139572,4.53893599 31.6315553,3.83049744 L31.6315553,11.8697847 L29.2193527,11.8697847 L29.2193527,15.3770141 L31.6315553,15.3770141 L31.6315553,18.24 L35.0781221,18.24 L35.0781221,15.3770141 L37.4897617,15.3770141 L37.4897617,11.8697847 L35.0781221,11.8697847 L35.0781221,3.83049744 C36.8957202,4.53893599 38.1902239,6.33295918 38.1902239,8.42961632 L38.1902239,14.2862709 C38.1902239,16.2167087 39.7330425,17.7871954 41.6294707,17.7871954 C43.3372696,17.7871954 44.7258065,16.3731842 44.7258065,14.6353317 L41.6356645,14.6353317 L41.6356645,14.2862709 L41.6356645,14.2283807 L41.6356645,8.42961632 C41.6356645,6.17763002 40.7747267,4.06091192 39.2099482,2.46864469 C37.6462958,0.876377463 35.5668691,0 33.3545572,0 C31.1428084,0 29.0633816,0.876377463 27.4991662,2.46864469 C25.9349507,4.06091192 25.0734498,6.17763002 25.0734498,8.42961632 L25.0734498,14.2776734 Z" id="Fill-8"></path>
                <g id="Group" transform="translate(44.725806, 0.000000)">
                    <path d="M27.4417309,7.7545939 L27.4417309,3.80180061 C29.2867839,4.38280668 30.7453882,5.87149121 31.314092,7.7545939 L27.4417309,7.7545939 Z M27.4417309,15.219833 L27.4417309,14.5848599 L27.4417309,11.2676138 L31.314092,11.2676138 C30.7453882,13.1507165 29.2867839,14.639401 27.4417309,15.219833 L27.4417309,15.219833 Z M20.1267711,11.2676138 L23.9996947,11.2676138 L23.9996947,14.5848599 L23.9996947,15.219833 C22.1546418,14.639401 20.6960374,13.1507165 20.1267711,11.2676138 L20.1267711,11.2676138 Z M23.9996947,3.80180061 L23.9996947,7.7545939 L20.1267711,7.7545939 C20.6960374,5.87149121 22.1546418,4.38280668 23.9996947,3.80180061 L23.9996947,3.80180061 Z M32.2923076,2.80341171 C31.4395331,1.93247672 30.4461296,1.24927788 29.3390979,0.771038691 C28.1921275,0.276150119 26.9748425,0.0246870169 25.7204316,0.0246870169 C24.4665831,0.0246870169 23.2492982,0.276150119 22.1023278,0.771038691 C20.995296,1.24927788 20.00133,1.93247672 19.1485555,2.80341171 C18.2952186,3.6743467 17.6252618,4.68823675 17.1572484,5.81809836 C16.671797,6.98872225 16.42654,8.23111073 16.42654,9.51139091 C16.42654,10.791097 16.671797,12.0334855 17.1572484,13.2041094 C17.6252618,14.333971 18.2952186,15.3484351 19.1485555,16.218796 C20.00133,17.089731 20.995296,17.7729298 22.1023278,18.2505949 C23.2492982,18.7466317 24.4665831,18.9969466 25.7204316,18.9969466 C26.9748425,18.9969466 28.1921275,18.7466317 29.3390979,18.2505949 C30.4461296,17.7729298 31.4395331,17.089731 32.2923076,16.218796 C33.1462071,15.3484351 33.8156013,14.333971 34.2841772,13.2041094 C34.7685036,12.0334855 35.0148857,10.791097 35.0148857,9.51139091 C35.0148857,8.23111073 34.7685036,6.98872225 34.2841772,5.81809836 C33.8156013,4.68823675 33.1462071,3.6743467 32.2923076,2.80341171 L32.2923076,2.80341171 Z" id="Fill-10"></path>
                    <path d="M41.8639134,7.9681653 L40.3946212,6.46857255 L41.8639134,4.96840568 L43.3332055,6.46857255 L41.8639134,7.9681653 Z M43.5857753,14.9115323 L43.5857753,11.1803481 L48.2017827,6.46857255 L41.8639134,1.42108547e-14 L35.5260441,6.46857255 L40.142614,11.1803481 L40.142614,18.4251264 L49.224437,18.4251264 L49.224437,14.9115323 L43.5857753,14.9115323 Z" id="Fill-12"></path>
                    <path d="M9.53352347,5.58535146 C6.68325421,5.58535146 4.3645627,7.95186038 4.3645627,10.8609096 C4.3645627,13.38243 6.37387034,15.4337489 8.84331617,15.4337489 L8.84331617,11.9201548 C8.27179978,11.9201548 7.80659894,11.4453603 7.80659894,10.8609096 C7.80659894,9.88950415 8.58118366,9.09837138 9.53352347,9.09837138 C10.9611894,9.09837138 12.1233478,10.2844964 12.1233478,11.7416045 C12.1233478,13.8044057 10.4779881,15.483697 8.45574256,15.483697 C5.69153826,15.483697 3.44203624,13.1878044 3.44203624,10.3665951 L3.44203624,0.0393844037 L1.42108547e-14,0.0393844037 L1.42108547e-14,10.3665951 C1.42108547e-14,12.6716735 0.879212721,14.838964 2.47675855,16.4694553 C4.07374186,18.0993726 6.19667775,18.9967169 8.45574256,18.9967169 C10.354797,18.9967169 12.1402232,18.2423276 13.4829493,16.8719111 C14.8256753,15.5009205 15.565384,13.6798224 15.565384,11.7416045 C15.565384,8.34685266 12.8591189,5.58535146 9.53352347,5.58535146" id="Fill-15"></path>
                </g>
            </g>
        </g>
    </g>
</svg>