<?xml version="1.0" encoding="UTF-8"?>
<svg width="678px" height="514px" viewBox="0 0 678 514" version="1.1" xmlns="http://www.w3.org/2000/svg" xmlns:xlink="http://www.w3.org/1999/xlink">
    <!-- Generator: Sketch 54.1 (76490) - https://sketchapp.com -->
    <title>Group 2</title>
    <desc>Created with Sketch.</desc>
    <defs>
        <polygon id="path-1" points="0 0.441275 89.248225 0.441275 89.248225 178.939275 0 178.939275"></polygon>
        <polygon id="path-3" points="0.565623529 0.381017647 256.178418 0.381017647 256.178418 256 0.565623529 256"></polygon>
        <polygon id="path-5" points="0.205092 0.0445323529 188.20176 0.0445323529 188.20176 248.285591 0.205092 248.285591"></polygon>
        <polygon id="path-7" points="0.003875 0.575173529 214.454125 0.575173529 214.454125 256 0.003875 256"></polygon>
    </defs>
    <g id="Design" stroke="none" stroke-width="1" fill="none" fill-rule="evenodd">
        <g id="Symbols-Desktop-Copy-3" transform="translate(-690.000000, -601.000000)">
            <g id="Group-2" transform="translate(690.000000, 601.000000)">
                <g id="Group-3">
                    <mask id="mask-2" fill="white">
                        <use xlink:href="#path-1"></use>
                    </mask>
                    <g id="Clip-2"></g>
                    <path d="M89.248225,178.939275 L89.248225,131.509275 C66.184225,131.509275 47.429225,112.746525 47.429225,89.690275 C47.429225,66.626275 66.184225,47.863525 89.248225,47.863525 L89.248225,0.441275 C65.409225,0.441275 42.996225,9.725775 26.132225,26.582025 C9.291475,43.438275 -0.000775,65.851275 -0.000775,89.690275 C-0.000775,113.529275 9.291475,135.942275 26.132225,152.798525 C42.996225,169.654775 65.409225,178.939275 89.248225,178.939275" id="Fill-1" fill="#000000" mask="url(#mask-2)"></path>
                </g>
                <path d="M89,207.702327 L89,255 C112.770426,255 135.118955,245.741403 151.934445,228.932181 C168.734479,212.122959 178,189.77249 178,166 C178,142.219781 168.734479,119.877041 151.934445,103.06009 C135.118955,86.2585967 112.770426,77 89,77 L89,124.289944 C111.997656,124.289944 130.698706,143.000347 130.698706,166 C130.698706,188.991924 111.997656,207.702327 89,207.702327" id="Fill-4" fill="#000000"></path>
                <polygon id="Fill-6" fill="#000000" points="268.175712 247 268.175712 116.202786 348 36.3421053 314.521305 2.85139319 268.175712 49.2136223 268.175712 2 220.824288 2 220.824288 49.2136223 174.478695 2.85139319 141 36.3421053 220.824288 116.202786 220.824288 247"></polygon>
                <path d="M336.522246,193.560727 L336.522246,198.392138 L294,198.392138 C294,221.82255 313.110599,240.893096 336.615242,240.893096 C362.716012,240.893096 383.950011,219.712189 383.950011,193.67668 L383.950011,114.688904 C383.950011,86.4116205 401.766422,62.215913 426.782243,52.6613141 L426.782243,161.078182 L393.582807,161.078182 L393.582807,208.387361 L426.782243,208.387361 L426.782243,247 L474.217757,247 L474.217757,208.387361 L507.409443,208.387361 L507.409443,161.078182 L474.217757,161.078182 L474.217757,52.6613141 C499.233578,62.215913 517.049989,86.4116205 517.049989,114.688904 L517.049989,193.67668 C517.049989,219.712189 538.283988,240.893096 564.384758,240.893096 C587.889401,240.893096 607,221.82255 607,198.392138 L564.470004,198.392138 L564.470004,193.67668 L564.470004,192.895924 L564.470004,114.688904 C564.470004,84.3167206 552.620813,55.7688779 531.084577,34.2942212 C509.563842,12.8272947 480.94444,1 450.496125,1 C420.05556,1 391.436158,12.8272947 369.907673,34.2942212 C348.379187,55.7688779 336.522246,84.3167206 336.522246,114.688904 L336.522246,193.560727 Z" id="Fill-8" fill="#000000"></path>
                <g id="Group-12" transform="translate(225.000000, 258.000000)">
                    <mask id="mask-4" fill="white">
                        <use xlink:href="#path-3"></use>
                    </mask>
                    <g id="Clip-11"></g>
                    <path d="M152.038153,104.521282 L152.038153,51.2715176 C177.409918,59.0919 197.467535,79.1495176 205.287918,104.521282 L152.038153,104.521282 Z M152.038153,205.111047 L152.038153,196.555812 L152.038153,151.861282 L205.287918,151.861282 C197.467535,177.233047 177.409918,197.290665 152.038153,205.111047 L152.038153,205.111047 Z M51.4483882,151.861282 L104.705888,151.861282 L104.705888,196.555812 L104.705888,205.111047 C79.3341235,197.290665 59.2765059,177.233047 51.4483882,151.861282 L51.4483882,151.861282 Z M104.705888,51.2715176 L104.705888,104.521282 L51.4483882,104.521282 C59.2765059,79.1495176 79.3341235,59.0919 104.705888,51.2715176 L104.705888,51.2715176 Z M218.739594,37.8121059 C207.012888,26.0854 193.352359,16.8726647 178.1293,10.4369 C162.357035,3.76134118 145.617859,0.381017647 128.368153,0.381017647 C111.126182,0.381017647 94.3870059,3.76134118 78.6147412,10.4369 C63.3916824,16.8726647 49.7234176,26.0854 37.9967118,37.8121059 C26.2622706,49.5465471 17.0495353,63.2148118 10.6137706,78.4301353 C3.93821176,94.2101353 0.565623529,110.949312 0.565623529,128.191282 C0.565623529,145.433253 3.93821176,162.172429 10.6137706,177.944694 C17.0495353,193.167753 26.2622706,206.836018 37.9967118,218.562724 C49.7234176,230.297165 63.3916824,239.5099 78.6147412,245.945665 C94.3870059,252.621224 111.126182,256.001547 128.368153,256.001547 C145.617859,256.001547 162.357035,252.621224 178.1293,245.945665 C193.352359,239.5099 207.012888,230.297165 218.739594,218.562724 C230.481771,206.836018 239.686771,193.167753 246.130271,177.944694 C252.790359,162.172429 256.178418,145.433253 256.178418,128.191282 C256.178418,110.949312 252.790359,94.2101353 246.130271,78.4301353 C239.686771,63.2148118 230.481771,49.5465471 218.739594,37.8121059 L218.739594,37.8121059 Z" id="Fill-10" fill="#000000" mask="url(#mask-4)"></path>
                </g>
                <g id="Group-15" transform="translate(489.000000, 258.000000)">
                    <mask id="mask-6" fill="white">
                        <use xlink:href="#path-5"></use>
                    </mask>
                    <g id="Clip-14"></g>
                    <path d="M87.186332,107.402679 L67.021692,87.1980912 L87.186332,66.9857676 L107.350972,87.1980912 L87.186332,107.402679 Z M110.817252,200.953326 L110.817252,150.68165 L174.167572,87.1980912 L87.186332,0.0445323529 L0.205092,87.1980912 L63.563132,150.68165 L63.563132,248.285591 L188.202532,248.285591 L188.202532,200.953326 L110.817252,200.953326 Z" id="Fill-13" fill="#000000" mask="url(#mask-6)"></path>
                </g>
                <g id="Group-18" transform="translate(0.000000, 258.000000)">
                    <mask id="mask-8" fill="white">
                        <use xlink:href="#path-7"></use>
                    </mask>
                    <g id="Clip-17"></g>
                    <path d="M131.350875,75.2981147 C92.081625,75.2981147 60.136125,107.190732 60.136125,146.385468 C60.136125,180.351144 87.819125,207.98935 121.841625,207.98935 L121.841625,160.64935 C113.967625,160.64935 107.558375,154.252262 107.558375,146.385468 C107.558375,133.289615 118.230125,122.630379 131.350875,122.630379 C151.020375,122.630379 167.031875,138.603762 167.031875,158.235938 C167.031875,186.044321 144.363125,208.662321 116.501875,208.662321 C78.418375,208.662321 47.426125,177.736615 47.426125,139.717644 L47.426125,0.575173529 L0.003875,0.575173529 L0.003875,139.717644 C0.003875,170.77485 12.117125,199.975585 34.127125,221.943821 C56.129375,243.904321 85.377875,256.002321 116.501875,256.002321 C142.665875,256.002321 167.264375,245.830409 185.763625,227.366262 C204.262875,208.902115 214.454125,184.350291 214.454125,158.235938 C214.454125,112.504879 177.168875,75.2981147 131.350875,75.2981147" id="Fill-16" fill="#000000" mask="url(#mask-8)"></path>
                </g>
            </g>
        </g>
    </g>
</svg>