<?xml version="1.0" encoding="UTF-8"?>
<svg width="184px" height="65px" viewBox="0 0 184 65" version="1.1" xmlns="http://www.w3.org/2000/svg" xmlns:xlink="http://www.w3.org/1999/xlink">
    <!-- Generator: Sketch 54.1 (76490) - https://sketchapp.com -->
    <title>Group 8</title>
    <desc>Created with Sketch.</desc>
    <defs>
        <polygon id="path-1" points="0 0.2131 177.5236 0.2131 177.5236 65 0 65"></polygon>
    </defs>
    <g id="Design" stroke="none" stroke-width="1" fill="none" fill-rule="evenodd">
        <g id="Symbols-Desktop-Copy-3" transform="translate(-72.000000, -4627.000000)">
            <g id="Group-8" transform="translate(72.000000, 4626.000000)">
                <g id="Group-3" transform="translate(0.000000, 0.787100)">
                    <mask id="mask-2" fill="white">
                        <use xlink:href="#path-1"></use>
                    </mask>
                    <g id="Clip-2"></g>
                    <path d="M44.2456,42.9101 C44.2456,38.2441 41.2896,34.4351 36.9086,33.3841 C35.6206,33.1031 34.4746,33.0061 31.1026,33.0061 L26.6216,33.0061 C23.5276,33.0061 21.2896,35.2461 21.2416,38.3771 L21.2416,39.9111 L21.2416,57.9081 C21.2416,59.9611 21.2896,60.3341 21.3306,60.7231 C21.5236,61.5691 21.9936,62.5231 22.6186,63.1971 C23.7656,64.4391 24.8126,64.7661 27.0936,64.7661 L35.4306,64.7661 C39.5276,64.7661 41.0016,64.3341 43.0406,62.4261 C45.1376,60.5291 46.2336,58.0981 46.2336,55.3421 C46.2336,52.2811 45.2856,50.2081 42.7636,47.7671 C43.9086,45.8161 44.2456,44.7131 44.2456,42.9101 L44.2456,42.9101 Z M171.8136,10.7861 C173.7566,10.7861 174.8516,10.4521 175.8016,9.6381 C176.8996,8.7381 177.5236,7.3051 177.5236,5.7821 C177.5236,3.5891 176.0896,1.7781 173.9056,1.2061 C173.1806,1.0191 172.9006,0.9801 169.8976,0.9801 L163.6266,0.9801 C160.5186,0.9801 160.2856,1.0191 159.0846,1.4941 C157.9986,1.9771 156.9976,2.9231 156.5616,4.1191 C156.1406,5.1161 156.0946,5.4431 156.0946,8.1071 L156.0946,25.3571 C156.0946,27.5461 156.1406,27.8381 156.2856,28.4961 C156.6166,30.3461 157.6756,31.6431 159.2876,32.3051 C160.1916,32.6401 160.8656,32.7291 163.2916,32.7291 L171.4316,32.7291 C173.8076,32.7291 174.7036,32.4961 175.7546,31.6431 C176.8066,30.7311 177.4686,29.3101 177.4686,27.8381 C177.4686,26.4011 176.8616,25.0731 175.7546,24.1141 C174.6636,23.2111 173.6666,22.9231 171.3726,22.9231 L166.5716,22.9231 L166.5716,20.5391 L170.3326,20.5391 C171.9926,20.5391 172.7516,20.3601 173.5586,19.7371 C174.4226,19.0131 174.9526,17.9301 174.9526,16.7381 C174.9526,14.4941 173.2736,12.9681 170.7066,12.9681 L166.5716,12.9681 L166.5716,10.7861 L171.8136,10.7861 Z M153.6176,37.0561 C150.5396,34.2951 146.8486,33.0061 142.0966,33.0061 L135.6696,33.0061 C132.6246,33.0061 130.6856,34.1901 129.9066,36.4761 C129.7616,36.9261 129.7066,37.2061 129.6856,37.9871 C129.5926,36.5641 129.2446,35.6361 128.4886,34.6651 C127.4796,33.4811 126.0586,32.7721 124.4926,32.7721 C122.7716,32.7721 121.1006,33.6641 120.1966,35.0471 C119.4376,36.1491 119.2426,37.0991 119.2426,39.1871 L119.2426,45.1031 L110.9126,34.8641 C109.7196,33.3841 108.5326,32.7721 107.0046,32.7721 C103.7216,32.7721 101.5296,35.0041 101.5296,38.3771 L101.5296,58.4841 C101.5296,58.7551 101.5336,59.0041 101.5396,59.2401 C101.4746,58.5901 101.2946,57.9111 100.9606,57.2891 L90.9546,35.9541 C90.0026,33.9521 88.1986,32.7721 86.0556,32.7721 C83.9556,32.7721 82.1586,33.9521 81.2556,35.9161 L71.2886,57.0011 C70.8746,57.8741 70.6496,58.7891 70.6326,59.6611 C70.5956,58.6171 70.2766,57.4671 69.6446,56.4781 L67.1736,52.5341 C69.6046,49.8191 70.5606,47.4821 70.5606,44.4371 C70.5606,39.2881 67.1256,34.8641 62.2196,33.4811 C60.8416,33.1461 59.6946,33.0061 57.1316,33.0061 L52.7406,33.0061 C50.2246,33.0061 49.1666,33.3291 47.9806,34.3851 C46.7426,35.4791 46.2666,36.7721 46.2666,39.0471 L46.2666,58.6211 C46.2666,60.6231 46.6526,62.0011 47.5096,63.0921 C48.4576,64.2881 50.0276,65.0001 51.5996,65.0001 C54.5066,65.0001 56.7516,62.7181 56.7516,59.7261 L56.7516,55.3841 L61.0746,62.5781 C62.0366,64.1511 63.5476,65.0001 65.4176,65.0001 C68.3406,65.0001 70.6086,62.7951 70.6416,59.9251 C70.7246,62.7971 72.9666,65.0001 75.8206,65.0001 C78.3366,65.0001 79.9136,63.7221 81.2556,60.6231 L90.9546,60.6231 C92.4336,63.8631 93.8646,65.0001 96.2906,65.0001 C99.1886,65.0001 101.5646,62.6691 101.5716,59.8321 C101.6676,61.2381 101.9596,62.0311 102.6316,62.9641 C103.6206,64.2451 105.1986,65.0001 106.8186,65.0001 C108.3836,65.0001 109.8686,64.2881 110.8616,63.0921 C111.7766,61.9621 112.0606,61.0041 112.0606,58.9091 L112.0606,52.2491 L120.3486,62.8661 C121.4476,64.2881 122.8096,65.0001 124.4926,65.0001 C126.1046,65.0001 127.6276,64.2881 128.5816,63.0531 C129.3106,62.0831 129.6006,61.1971 129.6846,59.5431 C129.7026,60.2501 129.7456,60.6151 129.8596,61.0511 C130.1906,62.2901 130.8566,63.1501 132.0556,63.9061 C133.0146,64.5721 134.0036,64.7661 136.4886,64.7661 L140.9056,64.7661 C143.0936,64.7661 145.0056,64.6181 146.2796,64.3891 C149.0446,63.8081 151.7166,62.4261 153.7616,60.5291 C157.0056,57.5301 158.8516,53.2461 158.8516,48.8571 C158.8516,44.3391 156.9546,40.0091 153.6176,37.0561 L153.6176,37.0561 Z M135.6556,29.7381 C136.6136,31.7791 138.4196,32.9631 140.6056,32.9631 C142.8996,32.9631 144.6006,31.7791 145.6956,29.4501 L155.5566,8.3481 C155.9386,7.5891 156.1246,6.7241 156.1246,5.8791 C156.1246,3.0201 153.8036,0.7421 150.8946,0.7421 C148.7956,0.7421 146.8406,2.0231 146.0376,3.9671 L140.6056,16.4031 L135.5616,4.4971 C134.5566,2.0661 132.7486,0.7421 130.4586,0.7421 C127.5496,0.7421 125.1306,3.0711 125.1306,5.8321 C125.1306,6.6421 125.3726,7.5891 125.8946,8.6831 L135.6556,29.7381 Z M114.6976,26.9191 C114.6976,29.1151 115.0366,30.2141 116.0256,31.3041 C116.9286,32.3051 118.5026,32.9631 119.9276,32.9631 C121.3066,32.9631 122.8326,32.3051 123.8456,31.2111 C124.7876,30.1671 125.1656,28.9321 125.1656,26.9191 L125.1656,7.2581 C125.1656,4.6871 124.8426,3.5891 123.7846,2.4051 C122.8326,1.3461 121.4086,0.7421 119.8766,0.7421 C118.3546,0.7421 116.9836,1.3461 116.0256,2.4481 C114.9386,3.6401 114.6976,4.5981 114.6976,7.2581 L114.6976,26.9191 Z M93.3466,10.7361 L96.1466,10.7361 L96.1466,26.6381 C96.1466,28.7801 96.3376,29.6881 97.0586,30.7821 C98.0626,32.1611 99.6286,32.9631 101.3966,32.9631 C103.1966,32.9631 104.7656,32.1141 105.7156,30.5951 C106.3816,29.4891 106.6236,28.4451 106.6236,26.5451 L106.6236,10.7361 L108.9676,10.7361 C110.8616,10.7361 112.2016,10.3501 113.0106,9.5951 C114.0546,8.6371 114.7206,7.2111 114.7206,5.8321 C114.7206,3.3551 112.9556,1.4041 110.4326,1.0691 C109.8256,0.9801 109.8256,0.9801 106.8656,0.9801 L96.2906,0.9801 C92.1486,0.9801 91.7206,1.0191 90.6296,1.4941 C89.0976,2.1681 87.9086,4.0721 87.9086,5.8791 C87.9086,7.1641 88.4416,8.3481 89.3796,9.3461 C90.3456,10.3071 91.5336,10.7361 93.3466,10.7361 L93.3466,10.7361 Z M19.6716,24.1141 C18.5776,23.2111 17.5766,22.9231 15.2866,22.9231 L10.4766,22.9231 L10.4766,20.5391 L14.2446,20.5391 C15.9116,20.5391 16.6726,20.3601 17.4856,19.7371 C18.3316,19.0131 18.8536,17.9301 18.8536,16.7381 C18.8536,14.4941 17.1846,12.9681 14.6206,12.9681 L10.4766,12.9681 L10.4766,10.7861 L15.7086,10.7861 C17.6716,10.7861 18.7606,10.4521 19.7126,9.6381 C20.8086,8.7381 21.4226,7.3051 21.4226,5.7821 C21.4226,3.5891 20.0066,1.7781 17.8146,1.2061 C17.0976,1.0191 16.8076,0.9801 13.8186,0.9801 L7.5246,0.9801 C4.4356,0.9801 4.1966,1.0191 3.0006,1.4941 C1.9066,1.9771 0.9166,2.9231 0.4846,4.1191 C0.0616,5.1161 -0.0004,5.4431 -0.0004,8.1071 L-0.0004,25.3571 C-0.0004,27.5461 0.0616,27.8381 0.1866,28.4961 C0.5216,30.3461 1.5786,31.6431 3.2016,32.3051 C4.1006,32.6401 4.7686,32.7291 7.1976,32.7291 L15.3336,32.7291 C17.7186,32.7291 18.6166,32.4961 19.6716,31.6431 C20.7116,30.7311 21.3756,29.3101 21.3756,27.8381 C21.3756,26.4011 20.7586,25.0731 19.6716,24.1141 L19.6716,24.1141 Z M21.3666,27.2621 C21.3666,26.8251 21.4056,26.4011 21.4536,25.9761 L25.0706,5.6301 C25.6036,2.5961 27.5026,0.7421 30.2086,0.7421 C32.4526,0.7421 34.5496,2.1211 35.4496,4.2551 L40.1676,14.7751 L45.4566,3.5351 C46.2666,1.8751 48.1206,0.7421 50.0796,0.7421 C51.3576,0.7421 52.7906,1.3071 53.6886,2.1681 C54.5996,3.0201 55.0306,3.9241 55.3066,5.6301 L57.7316,19.3561 C57.5956,18.4841 57.5056,17.5971 57.5056,16.6831 C57.5056,7.5421 64.9306,0.2131 74.2196,0.2131 C83.4966,0.2131 90.9686,7.6431 90.9686,16.8271 C90.9686,26.0231 83.4536,33.5391 74.2586,33.5391 C66.1926,33.5391 59.5586,27.9431 57.9096,20.3661 L58.9246,26.1121 C59.0766,26.7821 59.1256,27.4021 59.1256,27.8851 C59.1256,30.7311 56.8316,32.9631 53.9746,32.9631 C51.3086,32.9631 49.2216,31.3431 48.7906,28.9671 L47.5956,23.0201 L45.5406,28.6401 C44.5026,31.4951 42.6396,32.9631 40.1676,32.9631 C37.6016,32.9631 35.9386,31.6431 34.8396,28.6871 L32.7386,23.0201 L31.8856,28.0721 C31.3556,31.1091 29.3566,32.9631 26.6456,32.9631 C23.5496,32.9631 21.3666,30.5951 21.3666,27.2621 L21.3666,27.2621 Z" id="Fill-1" fill="#FFFFFF" mask="url(#mask-2)"></path>
                </g>
                <polygon id="Fill-4" fill="#FFFFFF" points="179.4912 2.2094 179.4912 4.8204 179.1722 4.8204 179.1722 2.2094 178.3092 2.2094 178.3092 1.9384 180.3532 1.9384 180.3532 2.2094"></polygon>
                <polygon id="Fill-6" fill="#FFFFFF" points="183.0498 4.8203 183.0498 2.1853 183.0368 2.1853 182.2308 4.8203 181.9838 4.8203 181.1728 2.1853 181.1608 2.1853 181.1608 4.8203 180.8728 4.8203 180.8728 1.9383 181.3678 1.9383 182.1038 4.2693 182.1108 4.2693 182.8338 1.9383 183.3368 1.9383 183.3368 4.8203"></polygon>
            </g>
        </g>
    </g>
</svg>