<?xml version="1.0" encoding="utf-8"?>
<!-- Generator: Adobe Illustrator 23.0.3, SVG Export Plug-In . SVG Version: 6.00 Build 0)  -->
<svg version="1.1" id="Layer_1" xmlns="http://www.w3.org/2000/svg" xmlns:xlink="http://www.w3.org/1999/xlink" x="0px" y="0px"
	 viewBox="0 0 11410.21 90.17" style="enable-background:new 0 0 11410.21 90.17;" xml:space="preserve">
<style type="text/css">
	.st0{fill:#232323;}
</style>
<polygon class="st0" points="3290.05,42.07 3290.05,14.89 3284.01,14.89 3284.01,75.27 3290.05,75.27 3290.05,48.1 3314.2,48.1 
	3314.2,75.27 3320.24,75.27 3320.24,42.07 "/>
<g>
	<polygon class="st0" points="5269.54,75.07 5263.51,75.07 5263.51,21.13 5209.57,21.13 5209.57,15.09 5269.54,15.09 	"/>
</g>
<g>
	<g>
		<polygon class="st0" points="3782.43,71.93 3776.4,71.93 3776.4,24.28 3722.06,24.28 3722.06,71.93 3716.02,71.93 3716.02,18.24 
			3782.43,18.24 		"/>
	</g>
</g>
<polygon class="st0" points="4365.48,52.13 4348.38,52.13 4348.38,14.89 4342.34,14.89 4342.34,52.13 4325.23,52.13 4325.23,58.17 
	4342.34,58.17 4342.34,75.27 4348.38,75.27 4348.38,58.17 4365.48,58.17 "/>
<polygon class="st0" points="5561.11,67.65 5540.64,47.19 5540.64,18.25 5534.6,18.25 5534.6,47.19 5514.14,67.65 5518.41,71.92 
	5534.6,55.73 5534.6,71.89 5540.64,71.89 5540.64,55.73 5556.84,71.92 "/>
<g>
	<polygon class="st0" points="5385.57,82.56 5385.57,22.18 5369.38,38.38 5365.11,34.11 5391.61,7.61 5391.61,67.99 5407.8,51.79 
		5412.07,56.06 	"/>
</g>
<g>
	<path class="st0" d="M4974.7,76.78h-6.04V46.6c0-14.98-12.19-27.17-27.17-27.17c-14.98,0-27.17,12.19-27.17,27.17v30.18h-6.04V46.6
		c0-18.31,14.9-33.21,33.21-33.21c18.31,0,33.21,14.9,33.21,33.21V76.78z"/>
</g>
<path class="st0" d="M4643.42,11.88c-18.31,0-33.21,14.9-33.21,33.21s14.9,33.21,33.21,33.21s33.21-14.9,33.21-33.21
	S4661.74,11.88,4643.42,11.88z M4670.42,42.06h-23.98V18.09C4659.02,19.48,4669.03,29.49,4670.42,42.06z M4640.41,18.09v23.98
	h-23.98C4617.82,29.49,4627.83,19.48,4640.41,18.09z M4616.43,48.1h23.98v23.98C4627.83,70.69,4617.82,60.68,4616.43,48.1z
	 M4646.44,72.08V48.1h23.98C4669.03,60.68,4659.02,70.69,4646.44,72.08z"/>
<path class="st0" d="M3603.21,42.2V14.9h-6.04V42.2c-16.9,1.53-30.19,15.77-30.19,33.07h6.04c0-14.98,12.19-27.17,27.17-27.17
	s27.17,12.19,27.17,27.17h6.04C3633.4,57.98,3620.11,43.74,3603.21,42.2z"/>
<g>
	<path class="st0" d="M3481.3,71.18h-60.27l30.14-52.2L3481.3,71.18z M3431.48,65.15h39.36l-19.68-34.09L3431.48,65.15z"/>
</g>
<path class="st0" d="M4214.14,31.81c0-9.82-7.99-17.82-17.82-17.82s-17.82,7.99-17.82,17.82c0,8.79,6.41,16.12,14.8,17.55v26.81
	h6.04V49.36C4207.73,47.92,4214.14,40.6,4214.14,31.81z M4196.33,43.59c-6.5,0-11.78-5.27-11.78-11.78c0-6.5,5.27-11.78,11.78-11.78
	s11.78,5.27,11.78,11.78C4208.1,38.31,4202.83,43.59,4196.33,43.59z"/>
<path class="st0" d="M4045.36,71.19V50.48l17.26-17.26l-20.28-20.28l-20.28,20.28l17.26,17.26v26.75h33.21v-6.04H4045.36z
	 M4042.34,21.48l11.74,11.74l-11.74,11.74l-11.74-11.74L4042.34,21.48z"/>
<polygon class="st0" points="4512.54,32.92 4494.39,14.77 4476.25,32.92 4480.52,37.19 4491.37,26.33 4491.37,75.39 4497.41,75.39 
	4497.41,26.33 4508.27,37.19 "/>
<polygon class="st0" points="5104.4,50.97 5093.54,61.82 5093.54,16.79 5087.51,16.79 5087.51,61.82 5076.65,50.97 5072.38,55.23 
	5090.52,73.38 5108.67,55.23 "/>
<path class="st0" d="M3124.46,73.35h57.27l-25.62-25.62v-9.66l8.54,4.93l3.02-5.23l-8.54-4.93l8.54-4.93l-3.02-5.23l-8.54,4.93
	v-10.8h-6.04v10.8l-8.54-4.93l-3.02,5.23l8.54,4.93l-8.54,4.93l3.02,5.23l8.54-4.93v9.66L3124.46,73.35z M3139.03,67.31l14.06-14.06
	l14.06,14.06H3139.03z"/>
<path class="st0" d="M6008.21,63.88l-19.22-19.23l19.22-19.23l-4.27-4.27l-19.21,19.23l-19.21-19.23l-4.27,4.27l19.22,19.23
	l-19.22,19.23l-5.15,5.15h57.27L6008.21,63.88z M5970.66,62.99l14.06-14.06l14.06,14.06H5970.66z"/>
<path class="st0" d="M5839.96,45.08l19.22-19.23v0l5.15-5.15h-57.27l5.19,5.19l19.18,19.2l-19.14,19.16l-5.23,5.23h57.27l-5.15-5.15
	L5839.96,45.08z M5849.75,26.74l-14.06,14.06l-14.06-14.06H5849.75z M5821.63,63.43l14.06-14.06l14.06,14.06H5821.63z"/>
<path class="st0" d="M5702.08,18.53V12.5c-15.14,0-27.46,12.32-27.46,27.46v28.29c0,1.86-1.52,3.38-3.38,3.38v6.04
	c5.19,0,9.42-4.22,9.42-9.45V56.82h21.42v-6.04h-21.42v-2.02h21.42v-6.04h-21.42V40.7h21.42v-6.04h-20.76
	C5683.68,25.4,5692.09,18.53,5702.08,18.53z"/>
<polygon class="st0" points="3034.25,63.01 3034.25,56.97 3007.08,56.97 3007.08,22.11 2986.96,22.11 2986.96,15.07 2980.92,15.07 
	2980.92,22.11 2973.87,22.11 2973.87,28.15 2980.92,28.15 2980.92,35.2 2986.96,35.2 2986.96,28.15 3001.04,28.15 3001.04,75.1 
	3034.25,75.1 3034.25,69.06 3007.08,69.06 3007.08,63.01 "/>
<path class="st0" d="M3910.33,14.89v15.09h-24.15V14.89h-6.04v60.38h6.04v-3h24.15v3h6.04V14.89H3910.33z M3910.33,36.02v6.05
	h-24.15v-6.05H3910.33z M3910.33,48.1v6.05h-24.15V48.1H3910.33z M3886.18,66.24v-6.05h24.15v6.05H3886.18z"/>
<polygon class="st0" points="4818.79,34.86 4823.06,30.59 4806.09,13.62 4792.46,27.25 4778.83,13.62 4761.86,30.59 4766.13,34.86 
	4778.83,22.16 4788.19,31.52 4774.6,45.1 4774.6,76.54 4780.64,76.54 4780.64,47.61 4792.46,35.79 4804.27,47.61 4804.27,76.54 
	4810.31,76.54 4810.31,45.1 4796.73,31.52 4806.09,22.16 "/>
<g>
	<path class="st0" d="M321.46,79.54L287,45.08l34.46-34.46l34.46,34.46L321.46,79.54z M295.54,45.08l25.92,25.92l25.92-25.92
		l-25.92-25.92L295.54,45.08z"/>
</g>
<g>
	<polygon class="st0" points="2556.96,90.17 2545.18,30.95 2536.36,75.28 2530.44,74.1 2545.18,0 2556.96,59.22 2568.74,0 
		2583.48,74.1 2577.56,75.28 2568.74,30.95 	"/>
</g>
<g>
	<polygon class="st0" points="1096.82,73.89 1028.26,73.89 1088.64,22.32 1036.44,22.32 1036.44,16.28 1105,16.28 1044.62,67.85 
		1096.82,67.85 	"/>
</g>
<polygon class="st0" points="947.79,17.79 887.41,17.79 887.41,23.83 896.47,23.83 896.47,72.38 902.51,72.38 902.51,23.83 
	932.68,23.83 932.68,72.38 938.72,72.38 938.72,23.83 947.79,23.83 "/>
<path class="st0" d="M2441.89,42.12h-42.44c-1.47-12.76-12.34-22.7-25.48-22.7v6.04c10.82,0,19.62,8.8,19.62,19.62
	s-8.8,19.62-19.62,19.62v6.04c13.11,0,23.95-9.88,25.47-22.59h42.46V42.12z"/>
<g>
	<path class="st0" d="M1508.87,78.28c-8.5,0-17.01-3.24-23.48-9.71l4.27-4.27c10.59,10.59,27.83,10.59,38.43,0
		c10.59-10.59,10.59-27.83,0-38.43c-10.59-10.59-27.83-10.59-38.42,0l-4.27-4.27c12.95-12.95,34.02-12.95,46.96,0
		c12.95,12.95,12.95,34.02,0,46.96C1525.88,75.04,1517.38,78.28,1508.87,78.28z"/>
</g>
<g>
	<path class="st0" d="M1686.24,73.42l-4.27-4.27c10.59-10.59,10.59-27.83,0-38.43c-10.59-10.59-27.83-10.59-38.42,0
		c-10.59,10.59-10.59,27.83,0,38.43l-4.27,4.27c-12.95-12.95-12.95-34.02,0-46.96c12.95-12.95,34.02-12.95,46.96,0
		C1699.19,39.41,1699.19,60.47,1686.24,73.42z"/>
</g>
<polygon class="st0" points="1245.85,21.25 1185.47,21.25 1185.47,27.29 1212.59,27.29 1190.29,65.9 1195.52,68.92 1215.66,34.04 
	1235.8,68.92 1241.03,65.9 1218.74,27.29 1245.85,27.29 "/>
<path class="st0" d="M46.79,14.9h-6.04c0,8.54-6.2,15.66-14.34,17.09v-17.1h-6.04v17.1C12.24,30.56,6.04,23.44,6.04,14.9H0
	c0,11.88,8.9,21.71,20.38,23.2v37.18h6.04V38.1C37.9,36.61,46.79,26.78,46.79,14.9z"/>
<path class="st0" d="M2737.52,41.99c-0.67-5.08-2.96-9.77-6.65-13.45c-4.42-4.42-10.29-6.85-16.54-6.85s-12.12,2.43-16.54,6.85
	c-3.68,3.68-5.98,8.37-6.65,13.45h-10.06l10.86-10.86l-4.27-4.27l-18.14,18.15l18.14,18.14l4.27-4.27l-10.86-10.86h10.04
	c0.64,5.13,2.95,9.88,6.66,13.6c4.42,4.42,10.29,6.85,16.54,6.85s12.12-2.43,16.54-6.85c3.72-3.72,6.02-8.47,6.66-13.6h4.93v-6.04
	H2737.52z M2702.06,32.81c3.28-3.28,7.64-5.08,12.27-5.08s9,1.81,12.27,5.08c2.54,2.54,4.19,5.72,4.81,9.18h-34.16
	C2697.87,38.53,2699.52,35.35,2702.06,32.81z M2726.6,57.36c-3.28,3.28-7.64,5.08-12.27,5.08s-9-1.81-12.27-5.08
	c-2.57-2.57-4.23-5.81-4.83-9.33h34.21C2730.84,51.54,2729.18,54.79,2726.6,57.36z"/>
<path class="st0" d="M11391.21,39.29l-10.14-10.14l-4.27,4.27l2.85,2.85h-10.19c-1.16-2.86-2.89-5.48-5.14-7.73
	c-9.12-9.12-23.97-9.12-33.09,0c-2.25,2.25-3.98,4.87-5.14,7.73h-17.48v6.04h15.93c-0.11,0.91-0.17,1.84-0.17,2.77
	c0,0.99,0.07,1.96,0.19,2.92h-15.95v6.04h17.54c1.16,2.8,2.87,5.37,5.08,7.58c4.56,4.56,10.55,6.84,16.54,6.84
	c5.99,0,11.98-2.28,16.54-6.84c2.21-2.21,3.92-4.78,5.08-7.58h10.25l-2.85,2.85l4.27,4.27l10.14-10.14l-5.87-5.87L11391.21,39.29z
	 M11335.51,32.81c3.38-3.38,7.83-5.08,12.27-5.08c4.45,0,8.89,1.69,12.28,5.08c1.05,1.05,1.95,2.22,2.69,3.46h-29.92
	C11333.56,35.02,11334.46,33.86,11335.51,32.81z M11330.42,45.08c0-0.94,0.08-1.87,0.22-2.77h34.27c0.15,0.91,0.22,1.84,0.22,2.77
	c0,0.99-0.09,1.97-0.25,2.92h-34.22C11330.51,47.05,11330.42,46.07,11330.42,45.08z M11360.06,57.36c-6.77,6.77-17.78,6.77-24.55,0
	c-1.01-1.01-1.88-2.12-2.6-3.31h29.75C11361.93,55.24,11361.07,56.35,11360.06,57.36z M11371.01,42.31h8.64l-2.85,2.85l0,0l0,0
	l2.85,2.85h-8.66c0.12-0.96,0.19-1.94,0.19-2.92C11371.18,44.15,11371.12,43.22,11371.01,42.31z"/>
<path class="st0" d="M2879.88,26.86l-4.27,4.27l10.86,10.86h-27.86c-0.65-4.92-2.86-9.68-6.63-13.45
	c-4.42-4.42-10.29-6.85-16.54-6.85c-6.25,0-12.12,2.43-16.54,6.85c-4.42,4.42-6.85,10.29-6.85,16.54s2.43,12.13,6.85,16.54
	c4.42,4.42,10.29,6.85,16.54,6.85c6.25,0,12.13-2.43,16.54-6.85c3.81-3.81,6.03-8.62,6.65-13.6h27.84l-10.86,10.86l4.27,4.27
	l18.15-18.14L2879.88,26.86z M2847.7,57.36c-3.28,3.28-7.64,5.08-12.27,5.08s-9-1.81-12.27-5.08c-3.28-3.28-5.08-7.64-5.08-12.27
	c0-4.64,1.81-9,5.08-12.27c3.28-3.28,7.64-5.08,12.27-5.08s9,1.81,12.27,5.08C2854.47,39.58,2854.47,50.59,2847.7,57.36z"/>
<g>
	<path class="st0" d="M470.5,32.01c4.91,0,8.91-4,8.91-8.91c0-4.91-4-8.91-8.91-8.91c-4.91,0-8.91,4-8.91,8.91
		C461.59,28.01,465.58,32.01,470.5,32.01z M470.5,20.23c1.58,0,2.87,1.29,2.87,2.87c0,1.58-1.29,2.87-2.87,2.87
		s-2.87-1.29-2.87-2.87C467.63,21.52,468.91,20.23,470.5,20.23z"/>
	<path class="st0" d="M451.43,47.83c2.12-1.08,3.69-2.92,4.43-5.18v0c1.52-4.67-1.05-9.71-5.72-11.22
		c-4.67-1.52-9.71,1.05-11.22,5.72c-0.74,2.26-0.55,4.68,0.54,6.8c1.08,2.12,2.92,3.69,5.18,4.43c0.91,0.29,1.84,0.44,2.76,0.44
		C448.78,48.81,450.15,48.48,451.43,47.83z M446.49,42.63c-0.73-0.24-1.32-0.74-1.67-1.43c-0.35-0.68-0.41-1.46-0.17-2.19
		c0.39-1.21,1.52-1.98,2.73-1.98c0.29,0,0.59,0.05,0.88,0.14c1.5,0.49,2.33,2.11,1.84,3.62v0c-0.24,0.73-0.74,1.32-1.43,1.67
		C448,42.8,447.22,42.86,446.49,42.63z"/>
	<path class="st0" d="M461.45,59.86L461.45,59.86c-1.93-1.4-4.28-1.96-6.63-1.59c-2.35,0.37-4.41,1.64-5.81,3.56
		c-1.4,1.92-1.96,4.28-1.59,6.63c0.37,2.35,1.64,4.41,3.56,5.81c1.58,1.15,3.41,1.7,5.22,1.7c2.76,0,5.48-1.27,7.22-3.67
		C466.3,68.33,465.42,62.75,461.45,59.86z M458.53,68.76c-0.45,0.62-1.12,1.03-1.87,1.15c-0.76,0.12-1.52-0.06-2.14-0.51
		c-0.62-0.45-1.03-1.12-1.15-1.87c-0.12-0.76,0.06-1.52,0.51-2.14c0.56-0.77,1.44-1.18,2.33-1.18c0.58,0,1.17,0.18,1.68,0.55
		C459.18,65.68,459.46,67.48,458.53,68.76z"/>
	<path class="st0" d="M477.7,52.64c1.4-1.92,1.96-4.28,1.59-6.63c-0.37-2.35-1.64-4.41-3.56-5.81l0,0c-1.93-1.4-4.28-1.96-6.63-1.59
		c-2.35,0.37-4.41,1.64-5.81,3.56c-1.4,1.92-1.96,4.28-1.59,6.63c0.37,2.35,1.64,4.41,3.56,5.81c1.54,1.12,3.35,1.7,5.22,1.7
		c0.47,0,0.94-0.04,1.41-0.11C474.24,55.83,476.3,54.57,477.7,52.64z M472.82,49.09c-0.45,0.62-1.12,1.03-1.87,1.15
		c-0.76,0.12-1.52-0.06-2.14-0.51c-0.62-0.45-1.03-1.12-1.15-1.87c-0.12-0.76,0.06-1.52,0.51-2.14c0.45-0.62,1.12-1.03,1.87-1.15
		c0.15-0.02,0.3-0.04,0.46-0.04c0.6,0,1.19,0.19,1.68,0.55l0,0c0.62,0.45,1.03,1.12,1.15,1.87
		C473.45,47.71,473.27,48.47,472.82,49.09z"/>
	<path class="st0" d="M486.18,58.27c-2.35-0.37-4.7,0.19-6.63,1.59l0,0c-3.97,2.89-4.86,8.47-1.97,12.44
		c1.74,2.4,4.46,3.67,7.22,3.67c1.82,0,3.65-0.55,5.22-1.7c1.92-1.4,3.19-3.46,3.56-5.81c0.37-2.35-0.19-4.7-1.59-6.63
		C490.59,59.91,488.53,58.64,486.18,58.27z M487.62,67.52c-0.12,0.76-0.53,1.42-1.15,1.87c-0.62,0.45-1.38,0.63-2.14,0.51
		c-0.76-0.12-1.42-0.53-1.87-1.15c-0.93-1.28-0.65-3.08,0.63-4.01l0,0c1.28-0.93,3.08-0.65,4.01,0.64
		C487.55,66,487.74,66.76,487.62,67.52z"/>
	<path class="st0" d="M502.08,37.14c-1.52-4.67-6.55-7.24-11.22-5.72c-4.67,1.52-7.24,6.55-5.72,11.22c0.74,2.26,2.31,4.1,4.43,5.18
		c1.27,0.65,2.65,0.98,4.03,0.98c0.93,0,1.86-0.15,2.76-0.44c2.26-0.74,4.1-2.31,5.18-4.43C502.63,41.82,502.82,39.41,502.08,37.14z
		 M496.17,41.2c-0.35,0.68-0.94,1.19-1.67,1.43c-0.73,0.24-1.51,0.18-2.19-0.17c-0.68-0.35-1.19-0.94-1.43-1.67v0
		c-0.49-1.5,0.34-3.13,1.84-3.62c0.29-0.1,0.59-0.14,0.88-0.14c1.21,0,2.34,0.77,2.73,1.98C496.58,39.74,496.52,40.52,496.17,41.2z"
		/>
</g>
<g>
	
		<rect x="1973.5" y="13.98" transform="matrix(0.7071 -0.7071 0.7071 0.7071 568.2761 1405.8568)" class="st0" width="15.09" height="6.04"/>
	
		<rect x="1981.56" y="22.04" transform="matrix(0.7071 -0.7071 0.7071 0.7071 564.8749 1413.8489)" class="st0" width="15.09" height="6.04"/>
	
		<rect x="1929.73" y="17.32" transform="matrix(0.7071 -0.7071 0.7071 0.7071 548.5064 1373.9413)" class="st0" width="6.04" height="15.09"/>
	
		<rect x="1937.78" y="9.26" transform="matrix(0.7071 -0.7071 0.7071 0.7071 556.5634 1377.2784)" class="st0" width="6.04" height="15.09"/>
	
		<rect x="1933.06" y="70.15" transform="matrix(0.7071 -0.7071 0.7071 0.7071 516.7167 1393.7128)" class="st0" width="15.09" height="6.04"/>
	
		<rect x="1925" y="62.09" transform="matrix(0.7071 -0.7071 0.7071 0.7071 519.9932 1385.5901)" class="st0" width="15.09" height="6.04"/>
	
		<rect x="1985.89" y="57.76" transform="matrix(0.7071 -0.7071 0.7071 0.7071 536.3616 1425.4977)" class="st0" width="6.04" height="15.09"/>
	
		<rect x="1977.83" y="65.81" transform="matrix(0.7071 -0.7071 0.7071 0.7071 528.3046 1422.1605)" class="st0" width="6.04" height="15.09"/>
	<path class="st0" d="M1985.21,45.08c0-13.46-10.95-24.4-24.4-24.4s-24.4,10.95-24.4,24.4s10.95,24.4,24.4,24.4
		S1985.21,58.54,1985.21,45.08z M1960.81,63.45c-10.13,0-18.37-8.24-18.37-18.37s8.24-18.37,18.37-18.37s18.37,8.24,18.37,18.37
		S1970.93,63.45,1960.81,63.45z"/>
	<path class="st0" d="M1960.81,46.45c-3.96,0-7.19,3.23-7.19,7.19c0,3.96,3.23,7.19,7.19,7.19s7.19-3.23,7.19-7.19
		C1968,49.68,1964.77,46.45,1960.81,46.45z M1960.81,54.8c-0.64,0-1.15-0.52-1.15-1.15c0-0.64,0.52-1.15,1.15-1.15
		c0.64,0,1.15,0.52,1.15,1.15C1961.96,54.28,1961.44,54.8,1960.81,54.8z"/>
	<path class="st0" d="M1966.51,32.19c-2.33,0-4.39,1.12-5.71,2.83c-1.32-1.72-3.38-2.83-5.71-2.83c-3.96,0-7.19,3.23-7.19,7.19
		c0,3.96,3.23,7.19,7.19,7.19c2.33,0,4.39-1.12,5.71-2.83c1.32,1.72,3.38,2.83,5.71,2.83c3.96,0,7.19-3.23,7.19-7.19
		C1973.7,35.41,1970.48,32.19,1966.51,32.19z M1955.1,40.53c-0.64,0-1.15-0.52-1.15-1.15c0-0.64,0.52-1.15,1.15-1.15
		c0.64,0,1.15,0.52,1.15,1.15C1956.25,40.01,1955.73,40.53,1955.1,40.53z M1966.51,40.53c-0.64,0-1.15-0.52-1.15-1.15
		c0-0.64,0.52-1.15,1.15-1.15c0.64,0,1.15,0.52,1.15,1.15C1967.67,40.01,1967.15,40.53,1966.51,40.53z"/>
</g>
<path class="st0" d="M2131.21,52.59c-0.93,0-1.82,0.18-2.63,0.51l0.11-0.11l-14.55-14.55l19.21-19.21l-4.27-4.27l-16.19,16.19V14.99
	h-6.04v16.16l-16.19-16.19l-4.27,4.27l19.21,19.21l-14.55,14.55l0.11,0.11c-0.82-0.32-1.7-0.51-2.63-0.51
	c-3.96,0-7.19,3.23-7.19,7.19s3.23,7.19,7.19,7.19c3.96,0,7.19-3.23,7.19-7.19c0-0.93-0.18-1.82-0.51-2.63l0.11,0.11l11.53-11.53
	v29.49h6.04V45.72l11.53,11.53l0.11-0.11c-0.32,0.82-0.51,1.7-0.51,2.63c0,3.96,3.23,7.19,7.19,7.19c3.96,0,7.19-3.23,7.19-7.19
	S2135.17,52.59,2131.21,52.59z M2088.51,60.93c-0.64,0-1.15-0.52-1.15-1.15c0-0.64,0.52-1.15,1.15-1.15c0.64,0,1.15,0.52,1.15,1.15
	C2089.67,60.42,2089.15,60.93,2088.51,60.93z M2131.21,60.93c-0.64,0-1.15-0.52-1.15-1.15c0-0.64,0.52-1.15,1.15-1.15
	c0.64,0,1.15,0.52,1.15,1.15C2132.36,60.42,2131.84,60.93,2131.21,60.93z"/>
<g>
	<path class="st0" d="M1364.7,36.18c-4.91,0-8.91,4-8.91,8.91s4,8.91,8.91,8.91c4.91,0,8.91-4,8.91-8.91S1369.61,36.18,1364.7,36.18
		z M1364.7,47.95c-1.58,0-2.87-1.29-2.87-2.87c0-1.58,1.29-2.87,2.87-2.87c1.58,0,2.87,1.29,2.87,2.87
		C1367.57,46.67,1366.28,47.95,1364.7,47.95z"/>
	<path class="st0" d="M1364.7,56.32c-4.91,0-8.91,4-8.91,8.91c0,4.91,4,8.91,8.91,8.91c4.91,0,8.91-4,8.91-8.91
		C1373.6,60.31,1369.61,56.32,1364.7,56.32z M1364.7,68.1c-1.58,0-2.87-1.29-2.87-2.87c0-1.58,1.29-2.87,2.87-2.87
		c1.58,0,2.87,1.29,2.87,2.87C1367.57,66.81,1366.28,68.1,1364.7,68.1z"/>
	<path class="st0" d="M1364.7,33.85c4.91,0,8.91-4,8.91-8.91c0-4.91-4-8.91-8.91-8.91c-4.91,0-8.91,4-8.91,8.91
		C1355.79,29.85,1359.78,33.85,1364.7,33.85z M1364.7,22.07c1.58,0,2.87,1.29,2.87,2.87c0,1.58-1.29,2.87-2.87,2.87
		c-1.58,0-2.87-1.29-2.87-2.87C1361.83,23.36,1363.11,22.07,1364.7,22.07z"/>
</g>
<polygon class="st0" points="195.91,25.87 191.64,21.6 172.43,40.81 153.22,21.6 148.95,25.87 168.16,45.08 148.95,64.3 
	153.22,68.57 172.43,49.35 191.64,68.57 195.91,64.3 176.7,45.08 "/>
<g>
	<path class="st0" d="M652.74,63.2h-66.42V26.97h66.42V63.2z M592.36,57.16h54.34V33.01h-54.34V57.16z"/>
</g>
<path class="st0" d="M735.35,26.97V63.2h66.42V26.97H735.35z M795.73,55.9l-22.89-22.89h22.89V55.9z M760.76,33.01h3.55l24.15,24.15
	h-3.55L760.76,33.01z M776.37,57.16h-3.55l-24.15-24.15h3.55L776.37,57.16z M741.39,34.27l22.89,22.89h-22.89V34.27z"/>
<g>
	<path class="st0" d="M1815,69.45c-5.34,0-10.35-2.08-14.12-5.85c-6.47-6.47-6.47-16.99,0-23.45c2.62-2.62,6.1-4.06,9.81-4.06
		c3.71,0,7.19,1.44,9.81,4.06c2.21,2.21,3.43,5.15,3.43,8.27c0,3.13-1.22,6.06-3.43,8.27c-3.89,3.88-10.21,3.89-14.09,0l4.27-4.27
		c0.74,0.74,1.73,1.15,2.78,1.15c1.05,0,2.03-0.41,2.78-1.15c1.07-1.07,1.66-2.49,1.66-4s-0.59-2.93-1.66-4
		c-1.48-1.48-3.45-2.29-5.54-2.29c-2.09,0-4.06,0.81-5.54,2.29c-4.11,4.11-4.11,10.8,0,14.91c2.63,2.63,6.13,4.08,9.86,4.08
		c3.72,0,7.22-1.45,9.85-4.08c7.09-7.09,7.09-18.62,0-25.71c-4.43-4.43-10.33-6.88-16.6-6.88c-6.27,0-12.17,2.44-16.6,6.88
		l-4.27-4.27c5.57-5.57,12.99-8.64,20.87-8.64c7.88,0,15.29,3.07,20.87,8.64c9.44,9.44,9.44,24.8,0,34.24
		C1825.35,67.38,1820.33,69.45,1815,69.45z"/>
</g>
<path class="st0" d="M2282.05,45.43v-25.9c0-3.33-2.71-6.04-6.04-6.04h-34.24c-3.33,0-6.04,2.71-6.04,6.04v25.9
	c-6.48,3.37-10.05,8.02-10.05,13.13c0,5.24,3.73,9.98,10.51,13.37c6.11,3.06,14.17,4.74,22.7,4.74s16.58-1.68,22.7-4.74
	c6.78-3.39,10.51-8.14,10.51-13.37C2292.1,53.45,2288.53,48.8,2282.05,45.43z M2241.77,19.53h34.24v10.08h-34.24V19.53z
	 M2276.02,35.65v7.3c-5.1-1.63-10.99-2.5-17.12-2.5c-6.13,0-12.02,0.88-17.12,2.5v-7.3H2276.02z M2231.72,58.56
	c0-2.05,1.44-4.17,4.01-6.06v12.13C2233.16,62.73,2231.72,60.6,2231.72,58.56z M2241.77,67.79V49.33c4.54-1.72,10.4-2.85,17.12-2.85
	c6.72,0,12.58,1.12,17.12,2.85v18.46c-4.54,1.72-10.4,2.85-17.12,2.85C2252.18,70.63,2246.32,69.51,2241.77,67.79z M2282.05,64.62
	V52.5c2.57,1.89,4.01,4.02,4.01,6.06C2286.06,60.6,2284.63,62.73,2282.05,64.62z"/>
<polygon class="st0" points="9318.96,57.89 9314.69,53.62 9295.47,72.84 9283.84,61.2 9303.05,41.99 9298.78,37.72 9279.57,56.93 
	9275.78,53.14 9294.99,33.93 9290.72,29.66 9271.51,48.87 9267.72,45.08 9286.93,25.87 9282.67,21.6 9263.45,40.81 9259.67,37.03 
	9278.88,17.81 9274.61,13.54 9255.4,32.76 9251.61,28.97 9270.82,9.76 9266.55,5.49 9247.34,24.7 9231.43,8.79 9207.95,32.28 
	9212.22,36.54 9231.43,17.33 9243.07,28.97 9223.86,48.18 9228.13,52.45 9247.34,33.24 9251.13,37.03 9231.91,56.24 9236.18,60.51 
	9255.4,41.3 9259.18,45.08 9239.97,64.3 9244.24,68.57 9263.45,49.35 9267.24,53.14 9248.03,72.35 9252.3,76.62 9271.51,57.41 
	9275.3,61.2 9256.08,80.41 9260.35,84.68 9279.57,65.47 9295.47,81.37 "/>
<polygon class="st0" points="9585,22.52 9580.73,18.25 9564.54,34.44 9564.54,18.28 9558.5,18.28 9558.5,34.44 9542.31,18.25 
	9538.04,22.52 9558.5,42.98 9558.5,71.92 9564.54,71.92 9564.54,42.98 "/>
<polygon class="st0" points="10170.9,22.52 10166.63,18.25 10150.44,34.44 10150.44,18.28 10144.4,18.28 10144.4,71.92 
	10150.44,71.92 10150.44,42.98 "/>
<polygon class="st0" points="10011.64,39.29 10032.1,18.83 10027.83,14.56 10008.62,33.77 9989.41,14.56 9985.14,18.83 
	10005.6,39.29 10005.6,50.87 9985.14,71.34 9989.41,75.61 10008.62,56.39 10027.83,75.61 10032.1,71.34 10011.64,50.87 "/>
<path class="st0" d="M10627.41,54.38l-22.66-39.25l-22.66,39.25h19.64v20.66h6.04V54.38H10627.41z M10607.77,48.34v-15.9l9.18,15.9
	H10607.77z M10592.55,48.34l9.18-15.9v15.9H10592.55z"/>
<polygon class="st0" points="10323.66,57.89 10310.9,45.13 10323.71,32.33 10328.69,37.31 10332.96,33.04 10318.73,18.81 
	10314.46,23.08 10319.44,28.06 10306.63,40.86 10293.88,28.11 10298.91,23.08 10294.64,18.81 10280.41,33.04 10284.68,37.31 
	10289.61,32.38 10302.36,45.13 10289.66,57.84 10284.68,52.86 10280.41,57.13 10294.64,71.36 10298.91,67.09 10293.93,62.11 
	10306.63,49.4 10319.39,62.16 10314.46,67.09 10318.73,71.36 10332.96,57.13 10328.69,52.86 "/>
<path class="st0" d="M10905.84,45.06V19.44h7.04V13.4h-20.13v6.04h7.04v25.62h-15.28l18.3,31.7l18.3-31.7H10905.84z M10894.97,51.1
	h15.69l-7.84,13.59L10894.97,51.1z"/>
<polygon class="st0" points="10479.19,54.23 10474.92,49.96 10469.89,54.99 10459.99,45.08 10469.94,35.13 10474.92,40.11 
	10479.19,35.84 10474.21,30.86 10479.2,25.87 10474.93,21.6 10469.94,26.59 10464.96,21.61 10460.69,25.88 10465.67,30.86 
	10455.72,40.81 10445.81,30.91 10450.84,25.88 10446.57,21.61 10441.54,26.64 10436.5,21.6 10432.24,25.87 10437.27,30.91 
	10432.34,35.84 10436.61,40.11 10441.54,35.18 10451.45,45.08 10441.59,54.94 10436.61,49.96 10432.34,54.23 10437.32,59.21 
	10432.24,64.3 10436.5,68.57 10441.59,63.48 10446.57,68.46 10450.84,64.19 10445.86,59.21 10455.72,49.35 10465.62,59.26 
	10460.69,64.19 10464.96,68.46 10469.89,63.53 10474.93,68.57 10479.2,64.3 10474.16,59.26 "/>
<g>
	<rect x="9368.66" y="27.96" class="st0" width="6.04" height="34.24"/>
	<path class="st0" d="M9438.2,27.96L9438.2,27.96l-12.85,12.85l-12.85-12.85l-0.01,0.01l-0.01-0.01l-12.85,12.85l-12.85-12.85v0
		h-6.04V62.2h6.04v0l12.85-12.85l12.85,12.85l0.01-0.01l0.01,0.01l12.85-12.85l12.85,12.85v0h6.04V27.96H9438.2z M9386.77,53.66
		V36.5l8.58,8.58L9386.77,53.66z M9412.49,53.67l-8.59-8.59l8.59-8.59l8.59,8.59L9412.49,53.67z M9429.62,45.08l8.58-8.58v17.16
		L9429.62,45.08z"/>
	<rect x="9450.27" y="27.96" class="st0" width="6.04" height="34.24"/>
</g>
<g>
	<rect x="8935.17" y="55.25" class="st0" width="60.38" height="6.04"/>
	<rect x="8935.17" y="67.33" class="st0" width="60.38" height="6.04"/>
	<path class="st0" d="M8939.49,51.26l12.96-12.96l12.96,12.96l0,0v0l12.96-12.96l12.96,12.96l4.27-4.27l-12.96-12.96l12.74-12.74
		l-4.27-4.27l-12.74,12.74l-12.96-12.96l-0.22,0.22v0l-12.74,12.74l-12.96-12.96l-4.27,4.27l12.96,12.96l-12.96,12.96L8939.49,51.26
		z M8965.41,25.34l8.69,8.69l-8.69,8.69l-8.69-8.69L8965.41,25.34z"/>
</g>
<path class="st0" d="M9883.07,21.6l-4.27,4.27c2.91,2.91,5.08,6.38,6.41,10.15h-51.25c1.33-3.78,3.5-7.24,6.41-10.15l-4.27-4.27
	c-6.27,6.27-9.73,14.61-9.73,23.48s3.46,17.21,9.73,23.48l4.27-4.27c-2.91-2.91-5.08-6.38-6.41-10.15h51.25
	c-1.33,3.78-3.5,7.24-6.42,10.15l4.27,4.27c6.27-6.27,9.73-14.61,9.73-23.48S9889.34,27.87,9883.07,21.6z M9832.59,48.11
	c-0.11-1-0.17-2.01-0.17-3.02c0-1.02,0.06-2.03,0.17-3.02h54c0.11,1,0.17,2.01,0.17,3.02c0,1.02-0.06,2.03-0.17,3.02H9832.59z"/>
<g>
	<rect x="8637.13" y="12.64" class="st0" width="60.38" height="6.04"/>
	<polygon class="st0" points="8639.26,61.41 8667.32,33.36 8695.38,61.41 8699.64,57.14 8673.27,30.77 8697.51,30.77 8697.51,24.73 
		8637.13,24.73 8637.13,30.77 8661.37,30.77 8635,57.14 	"/>
	<polygon class="st0" points="8635,73.25 8639.26,77.52 8667.32,49.47 8695.38,77.52 8699.64,73.25 8667.32,40.93 	"/>
</g>
<g>
	<polygon class="st0" points="10781.84,63.38 10753.78,35.33 10725.73,63.38 10721.46,59.11 10753.78,26.79 10786.11,59.11 	"/>
</g>
<polygon class="st0" points="11064.81,49.6 11069.08,45.33 11054.87,31.12 11054.87,27.57 11064.81,37.51 11069.08,33.24 
	11051.85,16.01 11034.62,33.24 11038.89,37.51 11048.83,27.57 11048.83,31.12 11034.62,45.33 11038.89,49.6 11048.83,39.66 
	11048.83,43.2 11034.62,57.41 11038.89,61.68 11048.83,51.74 11048.83,55.29 11034.62,69.5 11038.89,73.77 11048.83,63.83 
	11048.83,74.15 11054.87,74.15 11054.87,63.83 11064.81,73.77 11069.08,69.5 11054.87,55.29 11054.87,51.74 11064.81,61.68 
	11069.08,57.41 11054.87,43.2 11054.87,39.66 "/>
<g>
	<polygon class="st0" points="9082.09,59.11 9086.36,63.38 9114.42,35.33 9142.47,63.38 9146.74,59.11 9114.42,26.79 	"/>
	<polygon class="st0" points="9114.42,19.21 9142.47,47.27 9146.74,43 9114.42,10.67 9082.09,43 9086.36,47.27 	"/>
	<polygon class="st0" points="9082.09,75.23 9086.36,79.49 9114.42,51.44 9142.47,79.49 9146.74,75.23 9114.42,42.9 	"/>
</g>
<polygon class="st0" points="9733.7,18.26 9727.66,18.26 9727.66,35.37 9713.57,35.37 9713.57,18.26 9707.53,18.26 9707.53,35.37 
	9693.44,35.37 9693.44,18.26 9687.41,18.26 9687.41,41.41 9707.53,41.41 9707.53,71.9 9713.57,71.9 9713.57,41.41 9733.7,41.41 "/>
<path class="st0" d="M8846.54,42.06v-6.04h-21.13V14.89h-6.04v21.13h-6.05V14.89h-6.04v21.13h-21.13v6.04h21.13v6.05h-21.13v6.04
	h21.13v21.13h6.04V54.15h6.05v21.13h6.04V54.15h21.13v-6.04h-21.13v-6.05H8846.54z M8819.38,48.11h-6.05v-6.05h6.05V48.11z"/>
<path class="st0" d="M11224.37,64.54l-19.21-19.24l9.02-9.03l7.25,7.25l4.27-4.27l-7.25-7.26l5.92-5.93l-4.27-4.27l-5.92,5.92
	l-7.26-7.26l-4.27,4.27l7.26,7.26l-9.02,9.03l-7.29-7.3l-4.27,4.27l7.29,7.3l-19.22,19.24l-5.15,5.15h57.27L11224.37,64.54z
	 M11186.82,63.66l14.06-14.06l14.06,14.06H11186.82z"/>
<polygon class="st0" points="6757.06,16.4 6702.72,16.4 6702.72,22.44 6717.81,22.44 6717.81,73.76 6723.84,73.76 6723.84,22.44 
	6735.93,22.44 6735.93,73.76 6741.97,73.76 6741.97,22.44 6757.06,22.44 "/>
<path class="st0" d="M6446.92,14.76c-6.29,0-11.85,3.23-15.1,8.12c-3.25-4.89-8.8-8.12-15.09-8.12c-9.99,0-18.11,8.13-18.11,18.11
	h6.04c0-6.66,5.42-12.08,12.08-12.08s12.08,5.42,12.08,12.08v42.54h6.04V32.87c0-6.66,5.42-12.08,12.08-12.08
	c6.66,0,12.08,5.42,12.08,12.08h6.04C6465.03,22.88,6456.91,14.76,6446.92,14.76z"/>
<path class="st0" d="M6311.86,16.8l-4.27-4.27c-8.21,8.21-12.66,18.77-13.36,29.54h-22.89c-0.7-10.76-5.15-21.33-13.36-29.54
	l-4.27,4.27c15.6,15.6,15.6,40.97,0,56.57l4.27,4.27c8.21-8.21,12.66-18.77,13.36-29.54h22.89c0.7,10.76,5.15,21.33,13.36,29.54
	l4.27-4.27C6296.27,57.77,6296.27,32.4,6311.86,16.8z"/>
<g>
	<path class="st0" d="M7933.25,77.96c-4.35,0-8.43-1.69-11.51-4.77l0,0c-4.14-4.15-7.05-9.08-8.72-14.31
		c-4.66,4.2-7.52,9.86-7.52,16.07h-6.04c0-9.08,4.72-17.22,12.12-22.64c-1.28-10.54,2.12-21.55,10.19-29.62
		c1.67-1.67,3.47-3.15,5.39-4.44h-32.7V12.2h55.38v6.02l-3,0.03c-7.86,0.05-15.24,3.14-20.8,8.7c-6.03,6.03-8.92,14.02-8.67,21.94
		c4.74-2.21,10.14-3.47,15.87-3.47c4.35,0,8.43,1.69,11.51,4.77c3.07,3.07,4.77,7.16,4.77,11.51c0,4.35-1.69,8.43-4.77,11.51
		C7941.68,76.27,7937.59,77.96,7933.25,77.96z M7926.04,68.96c1.93,1.91,4.48,2.96,7.2,2.96c2.73,0,5.3-1.06,7.24-3
		c1.93-1.93,3-4.5,3-7.24s-1.06-5.3-3-7.24c-1.93-1.93-4.5-3-7.24-3c-5.52,0-10.67,1.37-15,3.74
		C7919.51,60.24,7922.11,65.02,7926.04,68.96L7926.04,68.96z"/>
</g>
<g>
	<g>
		<path class="st0" d="M7627.51,56.85c-6.25,0-12.12-2.43-16.54-6.85c-4.45-4.45-6.88-10.37-6.85-16.67l5.97,0.03
			c-0.03,4.67,1.84,9.07,5.14,12.37c3.28,3.28,7.64,5.08,12.27,5.08c4.64,0,9-1.81,12.27-5.08l4.27,4.27
			C7639.64,54.41,7633.76,56.85,7627.51,56.85z"/>
	</g>
</g>
<path class="st0" d="M6603.8,28.38c0-4.52,1.76-8.76,4.95-11.95l-4.27-4.27c-4.33,4.33-6.72,10.1-6.72,16.22
	c0,9.32-7.58,16.91-16.91,16.91s-16.91-7.58-16.91-16.91c0-6.13-2.39-11.89-6.72-16.22l-4.27,4.27c3.19,3.19,4.95,7.44,4.95,11.95
	c0,8.97,5.18,16.75,12.7,20.52c-3.73,3-6.12,7.6-6.12,12.74c0,9.02,7.34,16.36,16.36,16.36s16.36-7.34,16.36-16.36
	c0-5.15-2.39-9.74-6.12-12.74C6598.62,45.13,6603.8,37.35,6603.8,28.38z M6591.18,61.65c0,5.69-4.63,10.32-10.32,10.32
	c-5.69,0-10.32-4.63-10.32-10.32c0-5.69,4.63-10.32,10.32-10.32C6586.55,51.33,6591.18,55.96,6591.18,61.65z"/>
<path class="st0" d="M7058.88,44.71c0-15.29-12.44-27.73-27.73-27.73c-14.36,0-26.2,10.97-27.59,24.96
	c-7.32,1.36-12.88,7.78-12.88,15.49c0,8.69,7.07,15.76,15.75,15.76s15.76-7.07,15.76-15.76c0-7.59-5.4-13.95-12.56-15.43
	c1.34-10.69,10.47-18.98,21.51-18.98c11.96,0,21.69,9.73,21.69,21.69c0,7.41,2.88,14.37,8.12,19.6l4.27-4.27
	C7061.13,55.95,7058.88,50.5,7058.88,44.71z M7016.16,57.43c0,5.36-4.36,9.72-9.72,9.72s-9.72-4.36-9.72-9.72s4.36-9.72,9.72-9.72
	S7016.16,52.07,7016.16,57.43z"/>
<g>
	<polygon class="st0" points="6123.79,37.32 6133.76,47.28 6143.72,37.32 6153.68,47.28 6165.78,35.19 6161.51,30.92 6153.68,38.75 
		6143.72,28.78 6133.76,38.75 6123.79,28.78 6113.83,38.75 6106,30.92 6101.74,35.19 6113.83,47.28 	"/>
	<polygon class="st0" points="6153.68,52.85 6143.72,42.88 6133.76,52.85 6123.79,42.88 6113.83,52.85 6106,45.02 6101.74,49.29 
		6113.83,61.38 6123.79,51.42 6133.76,61.38 6143.72,51.42 6153.68,61.38 6165.78,49.29 6161.51,45.02 	"/>
</g>
<polygon class="st0" points="7784.16,17.9 7785.72,23.74 7792.01,22.05 7756.58,57.48 7744.48,45.39 7740.21,49.66 7752.31,61.75 
	7740.2,73.86 7744.47,78.13 7756.58,66.02 7768.67,78.12 7772.94,73.85 7760.85,61.75 7795.85,26.74 7794.35,32.36 7800.18,33.93 
	7806.04,12.04 "/>
<g>
	<path class="st0" d="M6864.49,49.27l18.28-18.15l-4.25-4.28l-26.21,26.03l0.01,0.01c-2.47,2.49-3.83,5.79-3.83,9.3
		c0,3.53,1.37,6.84,3.87,9.34c2.58,2.57,5.96,3.86,9.34,3.86c3.38,0,6.76-1.29,9.34-3.86c5.15-5.15,5.15-13.53,0-18.68
		C6869.17,50.97,6866.89,49.79,6864.49,49.27z M6866.76,67.24c-2.8,2.8-7.34,2.8-10.14,0c-1.35-1.35-2.1-3.15-2.1-5.07
		s0.75-3.72,2.1-5.07c1.4-1.4,3.23-2.1,5.07-2.1c1.84,0,3.67,0.7,5.07,2.1C6869.56,59.9,6869.56,64.45,6866.76,67.24z"/>
	<path class="st0" d="M6909.36,28c0-3.53-1.37-6.84-3.87-9.34c-2.49-2.49-5.81-3.87-9.34-3.87c-3.53,0-6.84,1.37-9.34,3.87
		c-5.15,5.15-5.15,13.53,0,18.68c1.82,1.82,4.07,3.04,6.53,3.57l-18.3,18.17l4.25,4.28l26.21-26.03l-0.01-0.01
		C6907.99,34.84,6909.36,31.53,6909.36,28z M6891.08,22.93c1.35-1.35,3.15-2.1,5.07-2.1s3.72,0.75,5.07,2.1
		c1.35,1.35,2.1,3.15,2.1,5.07s-0.75,3.72-2.1,5.07l0,0c-1.35,1.35-3.15,2.1-5.07,2.1s-3.72-0.75-5.07-2.1
		C6888.28,30.28,6888.28,25.73,6891.08,22.93z"/>
</g>
<g id="Layer_1_1_" transform="matrix(4.538455,0,0,4.531784,-13030.44,-20143.78)">
	<g id="path642">
		<path class="st0" d="M4447.94,4451.65v8.23h-1.32v-9.54c0-1.32-0.36-2.53-1.08-3.6h1.39c0.49,0.67,0.82,1.54,1.01,2.6
			c0.45-1.09,0.96-1.96,1.54-2.6l1.29-0.24c0.59,0.76,0.96,1.77,1.12,3.02c0.3-0.95,0.84-1.88,1.6-2.78l1.27-0.24
			c0.71,0.99,1.07,2.08,1.07,3.28v2.5c0.35-1,0.73-1.79,1.13-2.36l1.09-0.4c0.94,1.45,1.4,2.97,1.4,4.57c0,1.27-0.28,2.45-0.84,3.57
			c-0.56,1.11-1.4,2.15-2.51,3.11c0.1,0.77,0.56,1.64,1.35,2.62h-1.54c-0.37-0.47-0.71-1.1-1-1.88c-0.82,0.46-1.83,0.79-3.02,0.98
			v-1.13c1.13-0.23,2.04-0.56,2.76-0.99c-0.09-0.57-0.14-1.14-0.14-1.71v-7.99c0-1.3-0.18-2.28-0.56-2.95
			c-0.93,1-1.62,2.42-2.06,4.23v7.93h-1.32v-8.76c0-1.63-0.2-2.76-0.58-3.4C4449.08,4448.79,4448.4,4450.09,4447.94,4451.65z
			 M4455.83,4459.54c0.77-0.79,1.34-1.62,1.73-2.52c0.38-0.9,0.57-1.85,0.57-2.85c0-1.05-0.23-2.08-0.69-3.06
			c-0.65,0.81-1.18,1.88-1.61,3.22V4459.54z"/>
	</g>
</g>
<g>
	<path class="st0" d="M7333.07,45.09c0,3.88-3.16,7.04-7.04,7.04s-7.04-3.16-7.04-7.04v-3.02h-23.15v6.04h17.46
		c1.37,5.76,6.56,10.06,12.73,10.06c6.17,0,11.36-4.3,12.73-10.06h17.46v-6.04h-23.15V45.09z"/>
	<rect x="7295.83" y="32" class="st0" width="60.38" height="6.04"/>
</g>
<g>
	<path class="st0" d="M7498.39,52.33v-2.09c0.01-0.03,0.02-0.05,0.02-0.08v-9.25c-0.01,0.02-0.02,0.05-0.02,0.07V29.66
		c0-5.43-1.6-10.38-4.84-14.86l-5.76,1.1c-3.48,4.09-5.91,8.31-7.28,12.61c-0.71-5.7-2.41-10.26-5.08-13.7l-5.85,1.1
		c-2.64,2.91-4.99,6.82-7.01,11.78c-0.83-4.78-2.35-8.72-4.57-11.78h-6.3c3.27,4.86,4.9,10.32,4.9,16.31v43.16h5.97V38.11
		c2.11-7.06,5.2-12.96,9.33-17.77c1.72,2.88,2.61,8.01,2.61,15.39v39.63h6V39.51c2.02-8.22,5.14-14.62,9.36-19.16
		c1.72,3.03,2.56,7.47,2.56,13.38v18.61H7498.39z"/>
</g>
<path class="st0" d="M8086.72,25.72v6.04c4.9,0,8.89-3.99,8.89-8.89c0-5.71-4.65-10.36-10.36-10.36c-6.73,0-12.2,5.47-12.2,12.2
	v14.04c-0.62-0.06-1.25-0.09-1.88-0.09c-0.62,0-1.24,0.03-1.85,0.09V24.7c0-6.73-5.47-12.2-12.2-12.2
	c-5.71,0-10.36,4.65-10.36,10.36c0,4.9,3.99,8.89,8.89,8.89v-6.04c-1.57,0-2.85-1.28-2.85-2.85c0-2.38,1.94-4.32,4.32-4.32
	c3.4,0,6.16,2.76,6.16,6.16v15.62c-6.84,3.03-11.63,9.89-11.63,17.84c0,10.76,8.75,19.51,19.51,19.51s19.51-8.75,19.51-19.51
	c0-7.94-4.77-14.78-11.59-17.82V24.7c0-3.4,2.76-6.16,6.16-6.16c2.38,0,4.32,1.94,4.32,4.32
	C8089.57,24.43,8088.29,25.72,8086.72,25.72z M8084.64,58.16c0,7.43-6.04,13.47-13.47,13.47c-7.43,0-13.47-6.04-13.47-13.47
	s6.04-13.47,13.47-13.47C8078.6,44.68,8084.64,50.73,8084.64,58.16z"/>
<g>
	<path class="st0" d="M8220.22,77.67c-15.14,0-27.46-12.32-27.46-27.46V21.91c0-1.86-1.52-3.38-3.38-3.38c-1.16,0-2.1,0.94-2.1,2.1
		c0,0.59,0.48,1.08,1.08,1.08v6.04c-3.92,0-7.11-3.19-7.11-7.11c0-4.49,3.65-8.14,8.14-8.14c5.19,0,9.42,4.22,9.42,9.42v28.29
		c0,11.81,9.61,21.42,21.42,21.42c11.81,0,21.42-9.61,21.42-21.42V21.94c0-5.22,4.22-9.45,9.42-9.45c4.49,0,8.14,3.65,8.14,8.14
		c0,3.92-3.19,7.11-7.11,7.11v-6.04c0.59,0,1.08-0.48,1.08-1.08c0-1.16-0.94-2.1-2.1-2.1c-1.86,0-3.38,1.52-3.38,3.38v28.29
		C8247.68,65.35,8235.36,77.67,8220.22,77.67z"/>
</g>
<path class="st0" d="M8402.2,69.53c0,1.16-0.94,2.1-2.1,2.1c-1.86,0-3.38-1.52-3.38-3.38V39.96c0-15.14-12.32-27.46-27.46-27.46
	c-15.14,0-27.46,12.32-27.46,27.46v28.29c0,1.86-1.52,3.38-3.38,3.38c-1.16,0-2.1-0.94-2.1-2.1h-6.04c0,4.49,3.65,8.14,8.14,8.14
	c5.19,0,9.42-4.22,9.42-9.45V39.96c0-10.79,8.02-19.74,18.41-21.21v44.06h-7.04v6.04h7.04v7.04h6.04v-7.04h7.04v-6.04h-7.04V18.75
	c10.39,1.47,18.41,10.42,18.41,21.21v28.29c0,5.19,4.22,9.42,9.42,9.42c4.49,0,8.14-3.65,8.14-8.14H8402.2z"/>
<g>
	<polygon class="st0" points="8558.58,14.95 8478,14.95 8478,20.98 8490.01,20.98 8490.01,75.22 8496.05,75.22 8496.05,20.98 
		8540.52,20.98 8540.52,75.22 8546.56,75.22 8546.56,20.98 8558.58,20.98 	"/>
	
		<rect x="8521.48" y="34.27" transform="matrix(0.7071 -0.7071 0.7071 0.7071 2470.4761 6038.5254)" class="st0" width="5.75" height="5.75"/>
	
		<rect x="8515.41" y="28.2" transform="matrix(0.7071 -0.7071 0.7071 0.7071 2472.9963 6032.457)" class="st0" width="5.75" height="5.75"/>
	
		<rect x="8503.27" y="28.2" transform="matrix(0.7071 -0.7071 0.7071 0.7071 2469.4038 6023.835)" class="st0" width="5.75" height="5.75"/>
	
		<rect x="8509.35" y="34.28" transform="matrix(0.7071 -0.7071 0.7071 0.7071 2466.8845 6029.917)" class="st0" width="5.75" height="5.75"/>
	
		<rect x="8527.55" y="28.2" transform="matrix(0.7071 -0.7071 0.7071 0.7071 2476.4253 6040.9146)" class="st0" width="5.75" height="5.75"/>
	
		<rect x="8515.42" y="40.33" transform="matrix(0.7071 -0.7071 0.7071 0.7071 2464.418 6036.0161)" class="st0" width="5.75" height="5.75"/>
</g>
</svg>
