<?xml version="1.0" encoding="utf-8"?>
<!-- Generator: Adobe Illustrator 23.0.3, SVG Export Plug-In . SVG Version: 6.00 Build 0)  -->
<svg version="1.1" id="Layer_1" xmlns="http://www.w3.org/2000/svg" xmlns:xlink="http://www.w3.org/1999/xlink" x="0px" y="0px"
	 viewBox="0 0 94 19" style="enable-background:new 0 0 94 19;" xml:space="preserve">
<style type="text/css">
	.st0{fill-rule:evenodd;clip-rule:evenodd;fill:#FFFFFF;}
</style>
<title>Group 2 Copy</title>
<desc>Created with Sketch.</desc>
<g id="Design">
	<g id="Symbols-Desktop-Copy-3" transform="translate(-72.000000, -1667.000000)">
		<g id="Group-2-Copy" transform="translate(72.000000, 1667.000000)">
			<path id="Fill-1" class="st0" d="M6.82,12.92V9.49c-1.76,0-3.2-1.36-3.2-3.03c0-1.67,1.43-3.03,3.2-3.03V0C5,0,3.29,0.67,2,1.89
				C0.71,3.11,0,4.73,0,6.46s0.71,3.35,2,4.57C3.29,12.25,5,12.92,6.82,12.92"/>
			<path id="Fill-4" class="st0" d="M6.82,15.57V19c1.82,0,3.54-0.67,4.82-1.89c1.29-1.22,2-2.84,2-4.57c0-1.73-0.71-3.35-2-4.57
				c-1.29-1.22-3-1.89-4.82-1.89v3.43c1.76,0,3.2,1.36,3.2,3.03C10.02,14.21,8.59,15.57,6.82,15.57"/>
			<polygon id="Fill-6" class="st0" points="19.93,18.24 19.93,8.5 25.77,2.56 23.32,0.06 19.93,3.51 19.93,0 16.46,0 16.46,3.51 
				13.06,0.06 10.61,2.56 16.46,8.5 16.46,18.24 			"/>
			<path id="Fill-8" class="st0" d="M25.07,14.28v0.36h-3.09c0,1.74,1.39,3.15,3.1,3.15c1.9,0,3.44-1.57,3.44-3.5V8.43
				c0-2.1,1.29-3.89,3.11-4.6v8.04h-2.41v3.51h2.41v2.86h3.45v-2.86h2.41v-3.51h-2.41V3.83c1.82,0.71,3.11,2.5,3.11,4.6v5.86
				c0,1.93,1.54,3.5,3.44,3.5c1.71,0,3.1-1.41,3.1-3.15h-3.09v-0.35v-0.06v-5.8c0-2.25-0.86-4.37-2.43-5.96
				C37.65,0.88,35.57,0,33.35,0c-2.21,0-4.29,0.88-5.86,2.47c-1.56,1.59-2.43,3.71-2.43,5.96V14.28z"/>
			<g id="Group" transform="translate(44.725806, 0.000000)">
				<path id="Fill-10" class="st0" d="M27.44,7.75V3.8c1.85,0.58,3.3,2.07,3.87,3.95H27.44z M27.44,15.22v-0.63v-3.32h3.87
					C30.75,13.15,29.29,14.64,27.44,15.22L27.44,15.22z M20.13,11.27H24v3.32v0.63C22.15,14.64,20.7,13.15,20.13,11.27L20.13,11.27z
					 M24,3.8v3.95h-3.87C20.7,5.87,22.15,4.38,24,3.8L24,3.8z M32.29,2.8c-0.85-0.87-1.85-1.55-2.95-2.03
					c-1.15-0.49-2.36-0.75-3.62-0.75c-1.25,0-2.47,0.25-3.62,0.75C21,1.25,20,1.93,19.15,2.8c-0.85,0.87-1.52,1.88-1.99,3.01
					c-0.49,1.17-0.73,2.41-0.73,3.69c0,1.28,0.25,2.52,0.73,3.69c0.47,1.13,1.14,2.14,1.99,3.01C20,17.09,21,17.77,22.1,18.25
					c1.15,0.5,2.36,0.75,3.62,0.75c1.25,0,2.47-0.25,3.62-0.75c1.11-0.48,2.1-1.16,2.95-2.03c0.85-0.87,1.52-1.88,1.99-3.01
					c0.48-1.17,0.73-2.41,0.73-3.69c0-1.28-0.25-2.52-0.73-3.69C33.82,4.69,33.15,3.67,32.29,2.8L32.29,2.8z"/>
				<path id="Fill-12" class="st0" d="M41.86,7.97l-1.47-1.5l1.47-1.5l1.47,1.5L41.86,7.97z M43.59,14.91v-3.73l4.62-4.71L41.86,0
					l-6.34,6.47l4.62,4.71v7.24h9.08v-3.51H43.59z"/>
				<path id="Fill-15" class="st0" d="M9.53,5.59c-2.85,0-5.17,2.37-5.17,5.28c0,2.52,2.01,4.57,4.48,4.57v-3.51
					c-0.57,0-1.04-0.47-1.04-1.06c0-0.97,0.77-1.76,1.73-1.76c1.43,0,2.59,1.19,2.59,2.64c0,2.06-1.65,3.74-3.67,3.74
					c-2.76,0-5.01-2.3-5.01-5.12V0.04H0v10.33c0,2.31,0.88,4.47,2.48,6.1C4.07,18.1,6.2,19,8.46,19c1.9,0,3.68-0.75,5.03-2.12
					c1.34-1.37,2.08-3.19,2.08-5.13C15.57,8.35,12.86,5.59,9.53,5.59"/>
			</g>
		</g>
	</g>
</g>
</svg>
